<mxfile host="65bd71144e">
    <diagram id="LpfZilRBcQERvJJwl-t1" name="ページ1">
        <mxGraphModel dx="712" dy="814" grid="1" gridSize="10" guides="1" tooltips="1" connect="1" arrows="1" fold="1" page="1" pageScale="1" pageWidth="850" pageHeight="1100" math="0" shadow="0">
            <root>
                <mxCell id="0"/>
                <mxCell id="1" parent="0"/>
                <mxCell id="3" value="漁業者(fisherman)" style="shape=umlActor;verticalLabelPosition=bottom;verticalAlign=top;html=1;outlineConnect=0;" parent="1" vertex="1">
                    <mxGeometry x="360" y="430" width="30" height="60" as="geometry"/>
                </mxCell>
                <mxCell id="12" value="管理者(admin)" style="shape=umlActor;verticalLabelPosition=bottom;verticalAlign=top;html=1;outlineConnect=0;" parent="1" vertex="1">
                    <mxGeometry x="610" y="430" width="30" height="60" as="geometry"/>
                </mxCell>
                <mxCell id="15" value="漁業者&lt;br&gt;漁獲量報告&lt;br&gt;アプリ" style="ellipse;whiteSpace=wrap;html=1;" parent="1" vertex="1">
                    <mxGeometry x="440" y="420" width="120" height="80" as="geometry"/>
                </mxCell>
                <mxCell id="16" value="WEBアプリ" style="shape=note;whiteSpace=wrap;html=1;backgroundOutline=1;darkOpacity=0.05;fillColor=#f5f5f5;fontColor=#333333;strokeColor=#666666;" parent="1" vertex="1">
                    <mxGeometry x="372.5" y="290" width="125" height="50" as="geometry"/>
                </mxCell>
                <mxCell id="18" value="&lt;font style=&quot;font-size: 12px;&quot;&gt;&lt;span style=&quot;border-color: var(--border-color); background-color: initial;&quot;&gt;&amp;nbsp;●&lt;/span&gt;&lt;span style=&quot;border-color: var(--border-color); background-color: initial;&quot;&gt;&amp;nbsp;&lt;/span&gt;漁獲量をアプリに登録・削除&lt;br&gt;　- 漁法、魚種、エリア選択&lt;br&gt;　- kgで登録（0.0も可）&lt;br&gt;　- 少数第一位&lt;br&gt;&lt;br&gt;&lt;span style=&quot;border-color: var(--border-color); background-color: initial;&quot;&gt;&amp;nbsp;●&lt;/span&gt;&lt;span style=&quot;border-color: var(--border-color); background-color: initial;&quot;&gt;&amp;nbsp;&lt;/span&gt;&lt;span style=&quot;background-color: initial;&quot;&gt;マイページから個人情報変更&lt;br&gt;　- ユーザ名&lt;br&gt;&lt;/span&gt;　- 電話番号&lt;br&gt;　- メールアドレス&lt;span style=&quot;background-color: initial;&quot;&gt;　&lt;br&gt;&lt;/span&gt;&lt;br&gt;&lt;span style=&quot;border-color: var(--border-color); background-color: initial;&quot;&gt;&amp;nbsp;●&lt;/span&gt;&lt;span style=&quot;border-color: var(--border-color); background-color: initial;&quot;&gt;&amp;nbsp;&lt;/span&gt;&lt;span style=&quot;text-align: center; background-color: initial;&quot;&gt;漁獲量をグラフで閲覧&lt;/span&gt;&lt;div style=&quot;border-color: var(--border-color);&quot;&gt;&lt;span style=&quot;border-color: var(--border-color); text-align: center;&quot;&gt;　- ヒートマップ&lt;/span&gt;&lt;/div&gt;&lt;div style=&quot;border-color: var(--border-color);&quot;&gt;&lt;span style=&quot;border-color: var(--border-color); text-align: center;&quot;&gt;　- 棒グラフ&lt;/span&gt;&lt;/div&gt;&lt;/font&gt;&lt;span style=&quot;text-align: center;&quot;&gt;&lt;br&gt;&lt;/span&gt;&lt;span style=&quot;border-color: var(--border-color); background-color: initial;&quot;&gt;&amp;nbsp;●&lt;/span&gt;&lt;span style=&quot;border-color: var(--border-color); background-color: initial;&quot;&gt;&amp;nbsp;&lt;/span&gt;&lt;span style=&quot;text-align: center;&quot;&gt;WEBの利用同意書への署名&lt;br&gt;&lt;/span&gt;" style="shape=note;whiteSpace=wrap;html=1;backgroundOutline=1;darkOpacity=0.05;fillColor=#f5f5f5;strokeColor=#666666;fontColor=#333333;align=left;" parent="1" vertex="1">
                    <mxGeometry x="120" y="340" width="190" height="250" as="geometry"/>
                </mxCell>
                <mxCell id="23" value="&lt;div style=&quot;&quot;&gt;&lt;div style=&quot;border-color: var(--border-color);&quot;&gt;&lt;span style=&quot;border-color: var(--border-color); text-align: center;&quot;&gt;&lt;span style=&quot;background-color: initial; text-align: left; border-color: var(--border-color);&quot;&gt;&amp;nbsp;●&lt;/span&gt;&lt;span style=&quot;background-color: initial; text-align: left; border-color: var(--border-color);&quot;&gt;&amp;nbsp;&lt;/span&gt;漁業者の登録（CSV可）&amp;nbsp;&lt;/span&gt;&lt;/div&gt;&lt;div style=&quot;border-color: var(--border-color);&quot;&gt;&lt;span style=&quot;border-color: var(--border-color); text-align: center;&quot;&gt;&lt;span style=&quot;background-color: initial; text-align: left; border-color: var(--border-color);&quot;&gt;&amp;nbsp;●&lt;/span&gt;&lt;span style=&quot;background-color: initial; text-align: left; border-color: var(--border-color);&quot;&gt;&amp;nbsp;&lt;/span&gt;漁業者の削除（CSV不可）&lt;/span&gt;&lt;/div&gt;&lt;div style=&quot;text-align: left; border-color: var(--border-color);&quot;&gt;&lt;span style=&quot;border-color: var(--border-color); text-align: center;&quot;&gt;&lt;span style=&quot;background-color: initial; text-align: left; border-color: var(--border-color);&quot;&gt;&amp;nbsp;●&lt;/span&gt;&lt;span style=&quot;background-color: initial; text-align: left; border-color: var(--border-color);&quot;&gt;&amp;nbsp;&lt;/span&gt;漁業者一覧の出力（CSV）&lt;/span&gt;&lt;/div&gt;&lt;div style=&quot;border-color: var(--border-color);&quot;&gt;&lt;span style=&quot;border-color: var(--border-color); text-align: center;&quot;&gt;&lt;span style=&quot;background-color: initial; text-align: left; border-color: var(--border-color);&quot;&gt;&amp;nbsp;●&lt;/span&gt;&lt;span style=&quot;background-color: initial; text-align: left; border-color: var(--border-color);&quot;&gt;&amp;nbsp;&lt;/span&gt;漁業組合の登録・削除&lt;/span&gt;&lt;/div&gt;&lt;div style=&quot;border-color: var(--border-color);&quot;&gt;&lt;span style=&quot;border-color: var(--border-color); text-align: center;&quot;&gt;&lt;br style=&quot;border-color: var(--border-color);&quot;&gt;&lt;/span&gt;&lt;/div&gt;&lt;div style=&quot;border-color: var(--border-color);&quot;&gt;&lt;span style=&quot;border-color: var(--border-color); text-align: center;&quot;&gt;&lt;span style=&quot;background-color: initial; text-align: left; border-color: var(--border-color);&quot;&gt;&amp;nbsp;●&lt;/span&gt;&lt;span style=&quot;background-color: initial; text-align: left; border-color: var(--border-color);&quot;&gt;&amp;nbsp;&lt;/span&gt;漁獲量をグラフで閲覧&lt;/span&gt;&lt;span style=&quot;border-color: var(--border-color); text-align: center;&quot;&gt;&lt;br style=&quot;border-color: var(--border-color);&quot;&gt;&lt;/span&gt;&lt;/div&gt;&lt;div style=&quot;border-color: var(--border-color);&quot;&gt;&lt;span style=&quot;border-color: var(--border-color); text-align: center;&quot;&gt;　- ヒートマップ&lt;/span&gt;&lt;/div&gt;&lt;div style=&quot;border-color: var(--border-color);&quot;&gt;&lt;span style=&quot;border-color: var(--border-color); text-align: center;&quot;&gt;　- 棒グラフ&lt;/span&gt;&lt;/div&gt;&lt;div style=&quot;border-color: var(--border-color);&quot;&gt;&lt;span style=&quot;border-color: var(--border-color); text-align: center;&quot;&gt;&lt;br style=&quot;border-color: var(--border-color);&quot;&gt;&lt;/span&gt;&lt;/div&gt;&lt;div style=&quot;border-color: var(--border-color);&quot;&gt;&lt;span style=&quot;border-color: var(--border-color); text-align: center;&quot;&gt;&lt;span style=&quot;background-color: initial; text-align: left; border-color: var(--border-color);&quot;&gt;&amp;nbsp;●&lt;/span&gt;&lt;span style=&quot;background-color: initial; text-align: left; border-color: var(--border-color);&quot;&gt;&amp;nbsp;&lt;/span&gt;漁獲量の代理登録&lt;/span&gt;&lt;/div&gt;&lt;div style=&quot;border-color: var(--border-color);&quot;&gt;&lt;span style=&quot;border-color: var(--border-color); text-align: center;&quot;&gt;&lt;span style=&quot;background-color: initial; text-align: left; border-color: var(--border-color);&quot;&gt;&amp;nbsp;●&lt;/span&gt;&lt;span style=&quot;background-color: initial; text-align: left; border-color: var(--border-color);&quot;&gt;&amp;nbsp;&lt;/span&gt;漁獲量の編集&lt;/span&gt;&lt;/div&gt;&lt;div style=&quot;border-color: var(--border-color);&quot;&gt;&lt;span style=&quot;border-color: var(--border-color); text-align: center; background-color: initial;&quot;&gt;&lt;span style=&quot;background-color: initial; text-align: left; border-color: var(--border-color);&quot;&gt;&amp;nbsp;●&lt;/span&gt;&lt;span style=&quot;background-color: initial; text-align: left; border-color: var(--border-color);&quot;&gt;&amp;nbsp;&lt;/span&gt;お知らせ登録&lt;/span&gt;&lt;/div&gt;&lt;/div&gt;" style="shape=note;whiteSpace=wrap;html=1;backgroundOutline=1;darkOpacity=0.05;fillColor=#f5f5f5;strokeColor=#666666;fontColor=#333333;align=left;" parent="1" vertex="1">
                    <mxGeometry x="530" y="160" width="190" height="210" as="geometry"/>
                </mxCell>
                <mxCell id="24" value="" style="endArrow=none;dashed=1;html=1;entryX=0.5;entryY=1;entryDx=0;entryDy=0;entryPerimeter=0;" parent="1" target="16" edge="1">
                    <mxGeometry width="50" height="50" relative="1" as="geometry">
                        <mxPoint x="500" y="420" as="sourcePoint"/>
                        <mxPoint x="580" y="610" as="targetPoint"/>
                    </mxGeometry>
                </mxCell>
                <mxCell id="25" value="" style="endArrow=none;dashed=1;html=1;entryX=0.5;entryY=1;entryDx=0;entryDy=0;entryPerimeter=0;" parent="1" target="23" edge="1">
                    <mxGeometry width="50" height="50" relative="1" as="geometry">
                        <mxPoint x="625" y="420" as="sourcePoint"/>
                        <mxPoint x="505" y="390" as="targetPoint"/>
                    </mxGeometry>
                </mxCell>
                <mxCell id="26" value="" style="endArrow=none;dashed=1;html=1;entryX=0;entryY=0.3333333333333333;entryDx=0;entryDy=0;entryPerimeter=0;exitX=1.011;exitY=0.36;exitDx=0;exitDy=0;exitPerimeter=0;" parent="1" source="18" target="3" edge="1">
                    <mxGeometry width="50" height="50" relative="1" as="geometry">
                        <mxPoint x="650" y="460" as="sourcePoint"/>
                        <mxPoint x="701.3299999999999" y="416.9599999999999" as="targetPoint"/>
                    </mxGeometry>
                </mxCell>
                <mxCell id="29" value="" style="endArrow=none;html=1;" parent="1" target="12" edge="1">
                    <mxGeometry width="50" height="50" relative="1" as="geometry">
                        <mxPoint x="560" y="460" as="sourcePoint"/>
                        <mxPoint x="590" y="410" as="targetPoint"/>
                    </mxGeometry>
                </mxCell>
                <mxCell id="30" value="" style="endArrow=none;html=1;" parent="1" edge="1">
                    <mxGeometry width="50" height="50" relative="1" as="geometry">
                        <mxPoint x="390" y="460" as="sourcePoint"/>
                        <mxPoint x="440" y="460" as="targetPoint"/>
                    </mxGeometry>
                </mxCell>
                <mxCell id="31" value="漁業組合(union)" style="shape=umlActor;verticalLabelPosition=bottom;verticalAlign=top;html=1;outlineConnect=0;" parent="1" vertex="1">
                    <mxGeometry x="485" y="550" width="30" height="60" as="geometry"/>
                </mxCell>
                <mxCell id="33" value="" style="endArrow=none;html=1;" parent="1" edge="1">
                    <mxGeometry width="50" height="50" relative="1" as="geometry">
                        <mxPoint x="500" y="540" as="sourcePoint"/>
                        <mxPoint x="500" y="500" as="targetPoint"/>
                    </mxGeometry>
                </mxCell>
                <mxCell id="35" value="&lt;div style=&quot;&quot;&gt;&lt;div style=&quot;border-color: var(--border-color);&quot;&gt;&lt;span style=&quot;border-color: var(--border-color); text-align: center;&quot;&gt;&lt;span style=&quot;background-color: initial; text-align: left;&quot;&gt;&amp;nbsp;●&lt;/span&gt;&lt;span style=&quot;background-color: initial; text-align: left;&quot;&gt;&amp;nbsp;&lt;/span&gt;漁業者の登録（CSV可）&lt;/span&gt;&lt;/div&gt;&lt;div style=&quot;border-color: var(--border-color);&quot;&gt;&lt;span style=&quot;border-color: var(--border-color); text-align: center;&quot;&gt;&lt;span style=&quot;background-color: initial; text-align: left;&quot;&gt;&amp;nbsp;●&lt;/span&gt;&lt;span style=&quot;background-color: initial; text-align: left;&quot;&gt;&amp;nbsp;&lt;/span&gt;漁業者一覧の出力（CSV）&lt;/span&gt;&lt;/div&gt;&lt;div style=&quot;border-color: var(--border-color);&quot;&gt;&lt;span style=&quot;border-color: var(--border-color); text-align: center;&quot;&gt;&lt;span style=&quot;background-color: initial; text-align: left; border-color: var(--border-color);&quot;&gt;&amp;nbsp;●&lt;/span&gt;&lt;span style=&quot;background-color: initial; text-align: left; border-color: var(--border-color);&quot;&gt;&amp;nbsp;&lt;/span&gt;漁業組合の登録・削除&lt;/span&gt;&lt;/div&gt;&lt;div style=&quot;border-color: var(--border-color);&quot;&gt;&lt;span style=&quot;border-color: var(--border-color); text-align: center;&quot;&gt;&lt;br style=&quot;border-color: var(--border-color);&quot;&gt;&lt;/span&gt;&lt;/div&gt;&lt;div style=&quot;border-color: var(--border-color);&quot;&gt;&lt;span style=&quot;border-color: var(--border-color); text-align: center;&quot;&gt;&lt;span style=&quot;background-color: initial; text-align: left; border-color: var(--border-color);&quot;&gt;&amp;nbsp;●&lt;/span&gt;&lt;span style=&quot;background-color: initial; text-align: left; border-color: var(--border-color);&quot;&gt;&amp;nbsp;&lt;/span&gt;漁獲量をグラフで閲覧&lt;/span&gt;&lt;span style=&quot;border-color: var(--border-color); text-align: center;&quot;&gt;&lt;br style=&quot;border-color: var(--border-color);&quot;&gt;&lt;/span&gt;&lt;/div&gt;&lt;div style=&quot;border-color: var(--border-color);&quot;&gt;&lt;span style=&quot;border-color: var(--border-color); text-align: center;&quot;&gt;　- ヒートマップ&lt;/span&gt;&lt;/div&gt;&lt;div style=&quot;border-color: var(--border-color);&quot;&gt;&lt;span style=&quot;border-color: var(--border-color); text-align: center;&quot;&gt;　- 棒グラフ&lt;/span&gt;&lt;/div&gt;&lt;div style=&quot;border-color: var(--border-color);&quot;&gt;&lt;span style=&quot;border-color: var(--border-color); text-align: center;&quot;&gt;&lt;br style=&quot;border-color: var(--border-color);&quot;&gt;&lt;/span&gt;&lt;/div&gt;&lt;div style=&quot;border-color: var(--border-color);&quot;&gt;&lt;span style=&quot;border-color: var(--border-color); text-align: center;&quot;&gt;&lt;span style=&quot;background-color: initial; text-align: left; border-color: var(--border-color);&quot;&gt;&amp;nbsp;●&lt;/span&gt;&lt;span style=&quot;background-color: initial; text-align: left; border-color: var(--border-color);&quot;&gt;&amp;nbsp;&lt;/span&gt;漁獲量の代理登録&lt;/span&gt;&lt;/div&gt;&lt;div style=&quot;border-color: var(--border-color);&quot;&gt;&lt;span style=&quot;border-color: var(--border-color); text-align: center;&quot;&gt;&lt;span style=&quot;background-color: initial; text-align: left; border-color: var(--border-color);&quot;&gt;&amp;nbsp;●&lt;/span&gt;&lt;span style=&quot;background-color: initial; text-align: left; border-color: var(--border-color);&quot;&gt;&amp;nbsp;&lt;/span&gt;漁獲量の編集&lt;/span&gt;&lt;/div&gt;&lt;div style=&quot;border-color: var(--border-color);&quot;&gt;&lt;span style=&quot;border-color: var(--border-color); text-align: center; background-color: initial;&quot;&gt;&lt;span style=&quot;background-color: initial; text-align: left; border-color: var(--border-color);&quot;&gt;&amp;nbsp;●&lt;/span&gt;&lt;span style=&quot;background-color: initial; text-align: left; border-color: var(--border-color);&quot;&gt;&amp;nbsp;&lt;/span&gt;お知らせ登録&lt;/span&gt;&lt;/div&gt;&lt;/div&gt;" style="shape=note;whiteSpace=wrap;html=1;backgroundOutline=1;darkOpacity=0.05;fillColor=#f5f5f5;strokeColor=#666666;fontColor=#333333;align=left;" parent="1" vertex="1">
                    <mxGeometry x="680" y="590" width="190" height="190" as="geometry"/>
                </mxCell>
                <mxCell id="37" value="&lt;b&gt;&lt;font style=&quot;font-size: 16px;&quot;&gt;コンテキスト図&lt;/font&gt;&lt;/b&gt;&lt;br&gt;&lt;p style=&quot;margin: 0px; font-variant-numeric: normal; font-variant-east-asian: normal; font-variant-alternates: normal; font-kerning: auto; font-optical-sizing: auto; font-feature-settings: normal; font-variation-settings: normal; font-stretch: normal; font-size: 11px; line-height: normal; font-family: &amp;quot;Hiragino Kaku Gothic ProN&amp;quot;; text-align: start;&quot; class=&quot;p1&quot;&gt;&lt;b&gt;&lt;br&gt;&lt;/b&gt;&lt;/p&gt;&lt;p style=&quot;margin: 0px; font-variant-numeric: normal; font-variant-east-asian: normal; font-variant-alternates: normal; font-kerning: auto; font-optical-sizing: auto; font-feature-settings: normal; font-variation-settings: normal; font-stretch: normal; font-size: 11px; line-height: normal; font-family: &amp;quot;Hiragino Kaku Gothic ProN&amp;quot;; text-align: start;&quot; class=&quot;p1&quot;&gt;&lt;b&gt;開発する対象のシステムと、関わる人や他のシステムを整理した図&lt;/b&gt;&lt;/p&gt;&lt;p style=&quot;margin: 0px; font-variant-numeric: normal; font-variant-east-asian: normal; font-variant-alternates: normal; font-kerning: auto; font-optical-sizing: auto; font-feature-settings: normal; font-variation-settings: normal; font-stretch: normal; font-size: 11px; line-height: normal; font-family: &amp;quot;Hiragino Kaku Gothic ProN&amp;quot;; text-align: start;&quot; class=&quot;p1&quot;&gt;&lt;b&gt;&lt;br&gt;&lt;/b&gt;&lt;/p&gt;&lt;p style=&quot;margin: 0px; font-variant-numeric: normal; font-variant-east-asian: normal; font-variant-alternates: normal; font-kerning: auto; font-optical-sizing: auto; font-feature-settings: normal; font-variation-settings: normal; font-stretch: normal; font-size: 11px; line-height: normal; font-family: &amp;quot;Hiragino Kaku Gothic ProN&amp;quot;; text-align: start;&quot; class=&quot;p1&quot;&gt;&lt;b&gt;どこまでを今回の開発範囲にするのか&lt;/b&gt;&lt;/p&gt;&lt;p style=&quot;margin: 0px; font-variant-numeric: normal; font-variant-east-asian: normal; font-variant-alternates: normal; font-kerning: auto; font-optical-sizing: auto; font-feature-settings: normal; font-variation-settings: normal; font-stretch: normal; font-size: 11px; line-height: normal; font-family: &amp;quot;Hiragino Kaku Gothic ProN&amp;quot;; text-align: start;&quot; class=&quot;p1&quot;&gt;&lt;b&gt;連携するシステムや利用者 を明確にする。&lt;/b&gt;&lt;/p&gt;" style="shape=callout;whiteSpace=wrap;html=1;perimeter=calloutPerimeter;fontFamily=Helvetica;fontSize=12;fillColor=#e1d5e7;strokeColor=#9673a6;position2=0.16;size=30;position=0.1;" parent="1" vertex="1">
                    <mxGeometry x="30" y="50" width="370" height="180" as="geometry"/>
                </mxCell>
                <mxCell id="58" value="" style="edgeStyle=elbowEdgeStyle;elbow=vertical;sourcePerimeterSpacing=0;targetPerimeterSpacing=0;startArrow=none;endArrow=none;rounded=0;curved=0;fontFamily=Helvetica;fontSize=16;exitX=0.243;exitY=0.075;exitDx=0;exitDy=0;exitPerimeter=0;" parent="1" source="79" edge="1">
                    <mxGeometry relative="1" as="geometry">
                        <mxPoint x="462.57359312880726" y="751.7157287525381" as="sourcePoint"/>
                        <mxPoint x="370" y="520" as="targetPoint"/>
                        <Array as="points">
                            <mxPoint x="416" y="690"/>
                        </Array>
                    </mxGeometry>
                </mxCell>
                <mxCell id="59" value="" style="edgeStyle=elbowEdgeStyle;elbow=vertical;sourcePerimeterSpacing=0;targetPerimeterSpacing=0;startArrow=none;endArrow=none;rounded=0;curved=0;fontFamily=Helvetica;fontSize=16;exitX=0.753;exitY=0.079;exitDx=0;exitDy=0;exitPerimeter=0;" parent="1" source="79" edge="1">
                    <mxGeometry relative="1" as="geometry">
                        <mxPoint x="547.4264068711927" y="751.7157287525383" as="sourcePoint"/>
                        <mxPoint x="630" y="518.2800000000001" as="targetPoint"/>
                        <Array as="points">
                            <mxPoint x="588" y="690"/>
                        </Array>
                    </mxGeometry>
                </mxCell>
                <mxCell id="61" value="" style="endArrow=none;html=1;exitX=0.5;exitY=0;exitDx=0;exitDy=0;" parent="1" source="79" edge="1">
                    <mxGeometry x="357.5" y="690" width="50" height="50" relative="1" as="geometry">
                        <mxPoint x="499.47" y="740" as="sourcePoint"/>
                        <mxPoint x="499.47" y="640" as="targetPoint"/>
                    </mxGeometry>
                </mxCell>
                <mxCell id="62" value="" style="endArrow=none;dashed=1;html=1;exitX=0.008;exitY=0.405;exitDx=0;exitDy=0;exitPerimeter=0;" parent="1" source="35" edge="1">
                    <mxGeometry width="50" height="50" relative="1" as="geometry">
                        <mxPoint x="570" y="670" as="sourcePoint"/>
                        <mxPoint x="520" y="590.0000000000001" as="targetPoint"/>
                    </mxGeometry>
                </mxCell>
                <mxCell id="65" value="遊魚者&lt;br&gt;漁獲量報告&lt;br&gt;アプリ" style="ellipse;whiteSpace=wrap;html=1;" parent="1" vertex="1">
                    <mxGeometry x="1050" y="420" width="120" height="80" as="geometry"/>
                </mxCell>
                <mxCell id="66" value="" style="endArrow=none;html=1;entryX=0;entryY=0.5;entryDx=0;entryDy=0;" parent="1" target="65" edge="1">
                    <mxGeometry width="50" height="50" relative="1" as="geometry">
                        <mxPoint x="640" y="459.6700000000001" as="sourcePoint"/>
                        <mxPoint x="1050" y="460" as="targetPoint"/>
                    </mxGeometry>
                </mxCell>
                <mxCell id="72" value="一般人" style="shape=umlActor;verticalLabelPosition=bottom;verticalAlign=top;html=1;outlineConnect=0;" parent="1" vertex="1">
                    <mxGeometry x="305" y="750" width="30" height="60" as="geometry"/>
                </mxCell>
                <mxCell id="75" value="" style="endArrow=none;dashed=1;html=1;entryX=0.5;entryY=1;entryDx=0;entryDy=0;exitX=0;exitY=0;exitDx=80;exitDy=0;exitPerimeter=0;" parent="1" source="81" target="79" edge="1">
                    <mxGeometry width="50" height="50" relative="1" as="geometry">
                        <mxPoint x="390" y="1200" as="sourcePoint"/>
                        <mxPoint x="335" y="500" as="targetPoint"/>
                    </mxGeometry>
                </mxCell>
                <mxCell id="79" value="一般向け&lt;br style=&quot;border-color: var(--border-color);&quot;&gt;漁業可能エリア&lt;br style=&quot;border-color: var(--border-color);&quot;&gt;閲覧サイト" style="ellipse;whiteSpace=wrap;html=1;" parent="1" vertex="1">
                    <mxGeometry x="440" y="740" width="120" height="80" as="geometry"/>
                </mxCell>
                <mxCell id="80" value="" style="endArrow=none;html=1;entryX=0;entryY=0.5;entryDx=0;entryDy=0;" parent="1" source="72" target="79" edge="1">
                    <mxGeometry width="50" height="50" relative="1" as="geometry">
                        <mxPoint x="350" y="779.62" as="sourcePoint"/>
                        <mxPoint x="400" y="779.62" as="targetPoint"/>
                    </mxGeometry>
                </mxCell>
                <mxCell id="81" value="&lt;span style=&quot;border-color: var(--border-color); background-color: initial;&quot;&gt;&amp;nbsp;全ての人が&lt;/span&gt;&lt;span style=&quot;border-color: var(--border-color); background-color: initial;&quot;&gt;漁業可能な&lt;br&gt;&amp;nbsp;エリアを閲覧できるWEBサイト&lt;br&gt;&lt;/span&gt;&lt;span style=&quot;text-align: center;&quot;&gt;　-&amp;nbsp;&lt;/span&gt;日付の指定も可能&lt;span style=&quot;text-align: center;&quot;&gt;&lt;br&gt;&lt;/span&gt;" style="shape=note;whiteSpace=wrap;html=1;backgroundOutline=1;darkOpacity=0.05;fillColor=#f5f5f5;strokeColor=#666666;fontColor=#333333;align=left;" parent="1" vertex="1">
                    <mxGeometry x="410" y="870" width="190" height="70" as="geometry"/>
                </mxCell>
                <mxCell id="85" value="貸船業者" style="shape=umlActor;verticalLabelPosition=bottom;verticalAlign=top;html=1;outlineConnect=0;" parent="1" vertex="1">
                    <mxGeometry x="1320" y="330" width="30" height="60" as="geometry"/>
                </mxCell>
                <mxCell id="86" value="プライベートボート" style="shape=umlActor;verticalLabelPosition=bottom;verticalAlign=top;html=1;outlineConnect=0;" parent="1" vertex="1">
                    <mxGeometry x="1320" y="490" width="30" height="60" as="geometry"/>
                </mxCell>
                <mxCell id="87" value="" style="endArrow=none;html=1;exitX=1;exitY=0.5;exitDx=0;exitDy=0;" parent="1" source="65" target="85" edge="1">
                    <mxGeometry width="50" height="50" relative="1" as="geometry">
                        <mxPoint x="1000" y="469.6700000000001" as="sourcePoint"/>
                        <mxPoint x="1050" y="469.6700000000001" as="targetPoint"/>
                    </mxGeometry>
                </mxCell>
                <mxCell id="88" value="" style="endArrow=none;html=1;exitX=1;exitY=1;exitDx=0;exitDy=0;" parent="1" source="65" edge="1">
                    <mxGeometry width="50" height="50" relative="1" as="geometry">
                        <mxPoint x="1170" y="470" as="sourcePoint"/>
                        <mxPoint x="1310" y="530" as="targetPoint"/>
                    </mxGeometry>
                </mxCell>
                <mxCell id="89" value="貸船業者 かつ 遊魚者" style="shape=umlActor;verticalLabelPosition=bottom;verticalAlign=top;html=1;outlineConnect=0;" parent="1" vertex="1">
                    <mxGeometry x="1320" y="170" width="30" height="60" as="geometry"/>
                </mxCell>
                <mxCell id="90" value="" style="endArrow=none;html=1;exitX=1;exitY=0;exitDx=0;exitDy=0;" parent="1" source="65" edge="1">
                    <mxGeometry width="50" height="50" relative="1" as="geometry">
                        <mxPoint x="1180" y="475.0000000000001" as="sourcePoint"/>
                        <mxPoint x="1290" y="260" as="targetPoint"/>
                    </mxGeometry>
                </mxCell>
                <mxCell id="91" value="" style="shape=link;html=1;" parent="1" edge="1">
                    <mxGeometry width="100" relative="1" as="geometry">
                        <mxPoint x="950" y="70" as="sourcePoint"/>
                        <mxPoint x="960" y="970" as="targetPoint"/>
                    </mxGeometry>
                </mxCell>
            </root>
        </mxGraphModel>
    </diagram>
</mxfile>